<svg xmlns="http://www.w3.org/2000/svg" width="176" height="66" viewBox="0 0 176 66">
    <g fill="none" fill-rule="nonzero">
        <path fill="#009CD3" d="M22.96 8.8H12.104l-.72 7.512h3.584l.104.208-1.088 1.304a3.848 3.848 0 0 0-.904 2.52v16.168h-3.048V16.4L9.6 8.8H0v34.616h18.4a4.136 4.136 0 0 0 3.2-1.528 4.848 4.848 0 0 0 1.384-3.304L22.96 8.8zM85.92 13.136c-.112-2.89-1.395-4.336-3.848-4.336h-9.136v6.96h3.424l.984 16.08-5.28 3.2v9.144L78.328 40l1.192 3.424h7.68l-1.28-30.288zM60.488 8.832h9.688v34.584h-9.688zM25.888 8.832h9.688v20.784h-9.688zM114.952 13.136a4.288 4.288 0 0 0-4.304-4.336h-4.8a4.8 4.8 0 0 0-3.528 3v-3H90.24v6.96h2.56l-1.832 24.072v3.584h9.768v-6.904l1.488-20.752h2.864l.424 20.752h-2.808l.208 6.904h12.08l-.04-30.28zM57.296 13.136A4.288 4.288 0 0 0 53 8.8H38.008v6.96h9.6v27.656h9.688v-30.28z"/>
        <path fill="#FFF" d="M106.264 53.952h1.592V65.04h-1.592z"/>
        <path fill="#FFF" d="M113.84 50.4c0-.464-.24-.696-.736-.696h-6.84V51.2h5.944l-1.544 11.504h1.6l1.6-12-.024-.304zM103.2 50.84c0-.752-.336-1.128-1.016-1.128h-5.32V51.2h4.744v11.472h1.6L103.2 50.84zM84.152 50.84c0-.752-.336-1.128-1.016-1.128h-5.32V51.2h4.744v11.472h1.6l-.008-11.832zM91.848 49.712h1.568V65.04h-1.568zM70.176 49.712h-4.168v1.552h3.056l.056.168-.344.384a.8.8 0 0 0-.16.552v8.864H64.4v-11.52h-1.6v12.96h6.4a.92.92 0 0 0 .752-.344c.193-.258.292-.574.28-.896l-.056-11.72zM73.208 49.712h1.568v7.576h-1.568zM33.24 50.448a1.6 1.6 0 0 0-.248-.8.88.88 0 0 0-.632-.168h-2.52v1.456h1.832l.992 7.328-3.064 2.328v2.08l3.248-2.856.472 2.584h1.48l-1.56-11.952zM25.096 49.464h1.592v12.96h-1.592zM10.624 49.464h1.568v7.576h-1.568zM54.976 49.464H50.04v-3.4h-1.552v4.856H53.4l-.696 10.064H50V62.4h2.664c.406.033.809-.097 1.12-.36.294-.374.452-.836.448-1.312l.744-10.08v-1.184zM45.6 50.672a1.248 1.248 0 0 0-.296-.864.936.936 0 0 0-.76-.344H41.6c-.552.305-1.087.641-1.6 1.008v-1.008h-2.904v1.456H38.4l-.696 10.96v.52h1.552l.68-11.504h4l.104 10.064H40.8v1.44h4.8V50.672zM21.896 50.592c0-.752-.336-1.128-1.008-1.128H15.56v1.456h4.744V62.4h1.6l-.008-11.808zM6.4 49.464H0V62.4h7.44V50.552c0-.728-.344-1.088-1.04-1.088zm-.568 11.52H1.6V50.92h4.248l-.016 10.064zM137.016 30.32H124.4a.408.408 0 0 1-.384-.288.4.4 0 0 1 .176-.448l9.552-5.984a.4.4 0 0 1 .216-.056h12.616a.392.392 0 0 1 .384.288.4.4 0 0 1-.176.448l-9.552 5.984a.4.4 0 0 1-.216.056zm-11.2-.8h11.104l8.28-5.176h-11.128l-8.256 5.176zM137.016 29.92v30.456"/>
        <path fill="#FFF" d="M137.016 60.8a.4.4 0 0 1-.4-.4V29.92a.408.408 0 0 1 .4-.4c.22 0 .4.18.4.4v30.456a.4.4 0 0 1-.4.424zM124.4 29.92v30.456M124.4 60.8a.4.4 0 0 1-.4-.4V29.92a.408.408 0 0 1 .4-.4c.22 0 .4.18.4.4v30.456a.4.4 0 0 1-.4.424zM146.576 23.944v27.384M146.576 51.728a.4.4 0 0 1-.4-.4V23.944a.4.4 0 1 1 .8 0v27.384a.4.4 0 0 1-.4.4zM152.944 17.6h-12.616a.4.4 0 0 1-.208-.744l9.552-5.976a.4.4 0 0 1 .216-.064h12.616a.4.4 0 0 1 .208.744l-9.552 5.976a.4.4 0 0 1-.216.064zm-11.2-.8H152.8l8.28-5.184H150l-8.256 5.184zM152.944 17.176v28.6"/>
        <path fill="#FFF" d="M152.944 46.176a.4.4 0 0 1-.4-.4v-28.6a.4.4 0 1 1 .8 0v28.6a.4.4 0 0 1-.4.4zM140.328 17.176v6.768M140.328 24.344a.408.408 0 0 1-.4-.4v-6.768a.4.4 0 1 1 .8 0v6.768a.4.4 0 0 1-.4.4zM162.504 11.192v25.272M162.504 36.864a.4.4 0 0 1-.4-.4V11.2a.4.4 0 1 1 .8 0v25.264a.4.4 0 0 1-.4.4zM165.6 6.784h-12.656a.4.4 0 0 1-.208-.744l9.552-5.976a.4.4 0 0 1 .216-.064h12.616a.4.4 0 0 1 .384.288.392.392 0 0 1-.176.448l-9.552 5.984a.4.4 0 0 1-.176.064zm-11.2-.8h11.112L173.728.8h-11.112L154.4 5.984zM165.56 6.384v26.384"/>
        <path fill="#FFF" d="M165.6 33.168a.408.408 0 0 1-.4-.4V6.4a.4.4 0 1 1 .8 0v26.4a.4.4 0 0 1-.4.368zM152.944 6.384v4.808M152.944 11.592a.4.4 0 0 1-.4-.4V6.4a.4.4 0 1 1 .8 0v4.8a.4.4 0 0 1-.4.392zM175.12.4v22.72M175.12 23.52a.4.4 0 0 1-.4-.4V.4a.4.4 0 1 1 .8 0v22.72a.4.4 0 0 1-.4.4z"/>
    </g>
</svg>
